{
	"asset":{
		"generator":"Khronos glTF Blender I/O v4.3.47",
		"version":"2.0"
	},
	"extensionsUsed":[
		"KHR_lights_punctual"
	],
	"extensionsRequired":[
		"KHR_lights_punctual"
	],
	"extensions":{
		"KHR_lights_punctual":{
			"lights":[
				{
					"color":[
						1,
						1,
						1
					],
					"intensity":1,
					"type":"directional",
					"name":"Sun"
				}
			]
		}
	},
	"scene":0,
	"scenes":[
		{
			"name":"Scene",
			"nodes":[
				0,
				1,
				2,
				3,
				4
			]
		}
	],
	"nodes":[
		{
			"mesh":0,
			"name":"Desert"
		},
		{
			"camera":0,
			"name":"Camera",
			"rotation":[
				-0.07469197362661362,
				-0.22767817974090576,
				-0.01751871034502983,
				0.9707094430923462
			],
			"translation":[
				-8.220135688781738,
				6.209425926208496,
				16.183002471923828
			]
		},
		{
			"mesh":1,
			"name":"Obelisk.001",
			"translation":[
				0,
				-0.5154758095741272,
				0
			]
		},
		{
			"mesh":2,
			"name":"Sphere",
			"scale":[
				0.3842989206314087,
				0.3842989206314087,
				0.3842989206314087
			],
			"translation":[
				0,
				3.5858099460601807,
				0
			]
		},
		{
			"extensions":{
				"KHR_lights_punctual":{
					"light":0
				}
			},
			"name":"Sun",
			"rotation":[
				-0.18976372480392456,
				-0.10260797291994095,
				-0.019944969564676285,
				0.9762497544288635
			]
		}
	],
	"cameras":[
		{
			"name":"Camera",
			"perspective":{
				"aspectRatio":1.7777777777777777,
				"yfov":0.3995969934153844,
				"zfar":1000,
				"znear":0.10000000149011612
			},
			"type":"perspective"
		}
	],
	"materials":[
		{
			"doubleSided":true,
			"name":"Material.001",
			"pbrMetallicRoughness":{
				"baseColorFactor":[
					0.800000011920929,
					0.800000011920929,
					0.800000011920929,
					1
				],
				"metallicFactor":0,
				"roughnessFactor":0.5
			}
		},
		{
			"doubleSided":true,
			"name":"Material.002",
			"pbrMetallicRoughness":{
				"baseColorFactor":[
					0.800000011920929,
					0.800000011920929,
					0.800000011920929,
					1
				],
				"metallicFactor":0,
				"roughnessFactor":0.5
			}
		}
	],
	"meshes":[
		{
			"name":"Plane",
			"primitives":[
				{
					"attributes":{
						"POSITION":0,
						"NORMAL":1,
						"TEXCOORD_0":2
					},
					"indices":3
				}
			]
		},
		{
			"name":"Cube.001",
			"primitives":[
				{
					"attributes":{
						"POSITION":4,
						"NORMAL":5,
						"TEXCOORD_0":6
					},
					"indices":7,
					"material":0
				}
			]
		},
		{
			"name":"Sphere",
			"primitives":[
				{
					"attributes":{
						"POSITION":8,
						"NORMAL":9,
						"TEXCOORD_0":10
					},
					"indices":11,
					"material":1
				}
			]
		}
	],
	"accessors":[
		{
			"bufferView":0,
			"componentType":5126,
			"count":4576,
			"max":[
				7.643757343292236,
				1.7888039350509644,
				7.753202438354492
			],
			"min":[
				-7.5123186111450195,
				-1.5314077138900757,
				-7.624037265777588
			],
			"type":"VEC3"
		},
		{
			"bufferView":1,
			"componentType":5126,
			"count":4576,
			"type":"VEC3"
		},
		{
			"bufferView":2,
			"componentType":5126,
			"count":4576,
			"type":"VEC2"
		},
		{
			"bufferView":3,
			"componentType":5123,
			"count":6864,
			"type":"SCALAR"
		},
		{
			"bufferView":4,
			"componentType":5126,
			"count":314,
			"max":[
				1,
				6.936150074005127,
				1
			],
			"min":[
				-1,
				0,
				-1
			],
			"type":"VEC3"
		},
		{
			"bufferView":5,
			"componentType":5126,
			"count":314,
			"type":"VEC3"
		},
		{
			"bufferView":6,
			"componentType":5126,
			"count":314,
			"type":"VEC2"
		},
		{
			"bufferView":7,
			"componentType":5123,
			"count":642,
			"type":"SCALAR"
		},
		{
			"bufferView":8,
			"componentType":5126,
			"count":480,
			"max":[
				1,
				1,
				1
			],
			"min":[
				-0.9999999403953552,
				-1,
				-1
			],
			"type":"VEC3"
		},
		{
			"bufferView":9,
			"componentType":5126,
			"count":480,
			"type":"VEC3"
		},
		{
			"bufferView":10,
			"componentType":5126,
			"count":480,
			"type":"VEC2"
		},
		{
			"bufferView":11,
			"componentType":5123,
			"count":672,
			"type":"SCALAR"
		}
	],
	"bufferViews":[
		{
			"buffer":0,
			"byteLength":54912,
			"byteOffset":0,
			"target":34962
		},
		{
			"buffer":0,
			"byteLength":54912,
			"byteOffset":54912,
			"target":34962
		},
		{
			"buffer":0,
			"byteLength":36608,
			"byteOffset":109824,
			"target":34962
		},
		{
			"buffer":0,
			"byteLength":13728,
			"byteOffset":146432,
			"target":34963
		},
		{
			"buffer":0,
			"byteLength":3768,
			"byteOffset":160160,
			"target":34962
		},
		{
			"buffer":0,
			"byteLength":3768,
			"byteOffset":163928,
			"target":34962
		},
		{
			"buffer":0,
			"byteLength":2512,
			"byteOffset":167696,
			"target":34962
		},
		{
			"buffer":0,
			"byteLength":1284,
			"byteOffset":170208,
			"target":34963
		},
		{
			"buffer":0,
			"byteLength":5760,
			"byteOffset":171492,
			"target":34962
		},
		{
			"buffer":0,
			"byteLength":5760,
			"byteOffset":177252,
			"target":34962
		},
		{
			"buffer":0,
			"byteLength":3840,
			"byteOffset":183012,
			"target":34962
		},
		{
			"buffer":0,
			"byteLength":1344,
			"byteOffset":186852,
			"target":34963
		}
	],
	"buffers":[
		{
			"byteLength":188196,
			"uri":"ObeliskScene_WithLighting.bin"
		}
	]
}
