{
	"asset":{
		"generator":"Khronos glTF Blender I/O v4.5.47",
		"version":"2.0"
	},
	"scene":0,
	"scenes":[
		{
			"name":"Scene",
			"nodes":[
				0,
				1
			]
		}
	],
	"nodes":[
		{
			"mesh":0,
			"name":"Obelisk",
			"translation":[
				0,
				-0.5154758095741272,
				0
			]
		},
		{
			"mesh":1,
			"name":"Desert"
		}
	],
	"materials":[
		{
			"doubleSided":true,
			"name":"Material",
			"pbrMetallicRoughness":{
				"baseColorTexture":{
					"index":0
				},
				"metallicFactor":0,
				"roughnessFactor":0.5
			}
		}
	],
	"meshes":[
		{
			"name":"Cube",
			"primitives":[
				{
					"attributes":{
						"POSITION":0,
						"NORMAL":1,
						"TEXCOORD_0":2
					},
					"indices":3,
					"material":0
				}
			]
		},
		{
			"name":"Plane",
			"primitives":[
				{
					"attributes":{
						"POSITION":4,
						"NORMAL":5,
						"TEXCOORD_0":6
					},
					"indices":7
				}
			]
		}
	],
	"textures":[
		{
			"sampler":0,
			"source":0
		}
	],
	"images":[
		{
			"mimeType":"image/png",
			"name":"ObelisksTexture.png",
			"uri":"../Textures/ObelisksTexture.png"
		}
	],
	"accessors":[
		{
			"bufferView":0,
			"componentType":5126,
			"count":64,
			"max":[
				1,
				6.936150074005127,
				1
			],
			"min":[
				-1,
				0,
				-1
			],
			"type":"VEC3"
		},
		{
			"bufferView":1,
			"componentType":5126,
			"count":64,
			"type":"VEC3"
		},
		{
			"bufferView":2,
			"componentType":5126,
			"count":64,
			"type":"VEC2"
		},
		{
			"bufferView":3,
			"componentType":5123,
			"count":90,
			"type":"SCALAR"
		},
		{
			"bufferView":4,
			"componentType":5126,
			"count":4576,
			"max":[
				7.643757343292236,
				1.7888039350509644,
				7.753202438354492
			],
			"min":[
				-7.5123186111450195,
				-1.5314077138900757,
				-7.624037265777588
			],
			"type":"VEC3"
		},
		{
			"bufferView":5,
			"componentType":5126,
			"count":4576,
			"type":"VEC3"
		},
		{
			"bufferView":6,
			"componentType":5126,
			"count":4576,
			"type":"VEC2"
		},
		{
			"bufferView":7,
			"componentType":5123,
			"count":6864,
			"type":"SCALAR"
		}
	],
	"bufferViews":[
		{
			"buffer":0,
			"byteLength":768,
			"byteOffset":0,
			"target":34962
		},
		{
			"buffer":0,
			"byteLength":768,
			"byteOffset":768,
			"target":34962
		},
		{
			"buffer":0,
			"byteLength":512,
			"byteOffset":1536,
			"target":34962
		},
		{
			"buffer":0,
			"byteLength":180,
			"byteOffset":2048,
			"target":34963
		},
		{
			"buffer":0,
			"byteLength":54912,
			"byteOffset":2228,
			"target":34962
		},
		{
			"buffer":0,
			"byteLength":54912,
			"byteOffset":57140,
			"target":34962
		},
		{
			"buffer":0,
			"byteLength":36608,
			"byteOffset":112052,
			"target":34962
		},
		{
			"buffer":0,
			"byteLength":13728,
			"byteOffset":148660,
			"target":34963
		}
	],
	"samplers":[
		{
			"magFilter":9729,
			"minFilter":9987
		}
	],
	"buffers":[
		{
			"byteLength":162388,
			"uri":"ObeliskScene.bin"
		}
	]
}
